<svg width="381" height="50" viewBox="0 0 381 50" fill="none" xmlns="http://www.w3.org/2000/svg">
<path d="M13.288 33.96C13.288 36.616 12.808 38.808 11.848 40.536C10.92 42.264 9.67199 43.608 8.10398 44.568C6.56798 45.56 4.72798 46.408 2.58398 47.112L0.471985 41.544C1.87998 41 2.93599 40.376 3.63999 39.672C4.34399 38.968 4.80799 38.152 5.03199 37.224C5.28799 36.296 5.41599 35.112 5.41599 33.672V5.73602H13.288V33.96Z" fill="#141414"/>
<path d="M34.1384 12.696C36.3464 12.696 38.0744 13.368 39.3224 14.712C40.5704 16.056 41.1944 17.944 41.1944 20.376V39H33.6104V21.672C33.6104 20.392 33.4024 19.512 32.9864 19.032C32.5704 18.52 31.9784 18.264 31.2104 18.264C29.6744 18.264 28.2024 19.352 26.7944 21.528V39H19.2104V3.38402L26.7944 2.61602V16.248C27.8504 15.064 28.9704 14.184 30.1544 13.608C31.3384 13 32.6664 12.696 34.1384 12.696Z" fill="#141414"/>
<path d="M57.9535 12.696C61.8575 12.696 64.9135 13.896 67.1215 16.296C69.3295 18.664 70.4335 21.992 70.4335 26.28C70.4335 29 69.9215 31.384 68.8975 33.432C67.9055 35.448 66.4655 37.016 64.5775 38.136C62.7215 39.256 60.5135 39.816 57.9535 39.816C54.0815 39.816 51.0255 38.632 48.7855 36.264C46.5775 33.864 45.4735 30.52 45.4735 26.232C45.4735 23.512 45.9695 21.144 46.9615 19.128C47.9855 17.08 49.4255 15.496 51.2815 14.376C53.1695 13.256 55.3935 12.696 57.9535 12.696ZM57.9535 18.264C56.4175 18.264 55.2655 18.92 54.4975 20.232C53.7295 21.512 53.3455 23.512 53.3455 26.232C53.3455 29.016 53.7135 31.048 54.4495 32.328C55.2175 33.608 56.3855 34.248 57.9535 34.248C59.4895 34.248 60.6415 33.608 61.4095 32.328C62.1775 31.016 62.5615 29 62.5615 26.28C62.5615 23.496 62.1775 21.464 61.4095 20.184C60.6735 18.904 59.5215 18.264 57.9535 18.264Z" fill="#141414"/>
<path d="M89.8727 12.696C92.0807 12.696 93.8087 13.368 95.0567 14.712C96.3047 16.056 96.9287 17.944 96.9287 20.376V39H89.3447V21.672C89.3447 20.392 89.1367 19.512 88.7207 19.032C88.3367 18.52 87.7447 18.264 86.9447 18.264C85.4087 18.264 83.9367 19.368 82.5287 21.576V39H74.9447V13.512H81.5687L82.0967 16.536C83.1847 15.256 84.3527 14.296 85.6007 13.656C86.8807 13.016 88.3047 12.696 89.8727 12.696Z" fill="#141414"/>
<path d="M117.576 12.696C119.784 12.696 121.512 13.368 122.76 14.712C124.008 16.056 124.632 17.944 124.632 20.376V39H117.048V21.672C117.048 20.392 116.84 19.512 116.424 19.032C116.04 18.52 115.448 18.264 114.648 18.264C113.112 18.264 111.64 19.368 110.232 21.576V39H102.648V13.512H109.272L109.8 16.536C110.888 15.256 112.056 14.296 113.304 13.656C114.584 13.016 116.008 12.696 117.576 12.696Z" fill="#141414"/>
<path d="M144.134 39.048C143.11 42.344 141.43 44.872 139.094 46.632C136.79 48.424 133.686 49.432 129.782 49.656L128.966 44.328C131.398 44.008 133.19 43.464 134.342 42.696C135.526 41.928 136.47 40.696 137.174 39H134.582L126.806 13.512H134.87L139.43 34.152L144.422 13.512H152.246L144.134 39.048Z" fill="#141414"/>
<path d="M163.468 12.696C165.292 12.696 167.004 12.968 168.604 13.512C170.204 14.056 171.612 14.824 172.828 15.816L170.044 20.088C167.964 18.776 165.868 18.12 163.756 18.12C162.764 18.12 161.996 18.296 161.452 18.648C160.94 18.968 160.684 19.432 160.684 20.04C160.684 20.52 160.796 20.92 161.02 21.24C161.276 21.528 161.772 21.832 162.508 22.152C163.244 22.472 164.38 22.856 165.916 23.304C168.572 24.072 170.54 25.08 171.82 26.328C173.132 27.544 173.788 29.24 173.788 31.416C173.788 33.144 173.292 34.648 172.3 35.928C171.308 37.176 169.948 38.136 168.22 38.808C166.492 39.48 164.572 39.816 162.46 39.816C160.316 39.816 158.316 39.48 156.46 38.808C154.636 38.136 153.084 37.208 151.804 36.024L155.5 31.896C157.644 33.56 159.9 34.392 162.268 34.392C163.42 34.392 164.316 34.184 164.956 33.768C165.628 33.352 165.964 32.76 165.964 31.992C165.964 31.384 165.836 30.904 165.58 30.552C165.324 30.2 164.828 29.88 164.092 29.592C163.356 29.272 162.188 28.888 160.588 28.44C158.06 27.704 156.172 26.68 154.924 25.368C153.676 24.056 153.052 22.424 153.052 20.472C153.052 19 153.468 17.688 154.3 16.536C155.164 15.352 156.38 14.424 157.948 13.752C159.548 13.048 161.388 12.696 163.468 12.696Z" fill="#141414"/>
<path d="M186.343 12.696C188.167 12.696 189.879 12.968 191.479 13.512C193.079 14.056 194.487 14.824 195.703 15.816L192.919 20.088C190.839 18.776 188.743 18.12 186.631 18.12C185.639 18.12 184.871 18.296 184.327 18.648C183.815 18.968 183.559 19.432 183.559 20.04C183.559 20.52 183.671 20.92 183.895 21.24C184.151 21.528 184.647 21.832 185.383 22.152C186.119 22.472 187.255 22.856 188.791 23.304C191.447 24.072 193.415 25.08 194.695 26.328C196.007 27.544 196.663 29.24 196.663 31.416C196.663 33.144 196.167 34.648 195.175 35.928C194.183 37.176 192.823 38.136 191.095 38.808C189.367 39.48 187.447 39.816 185.335 39.816C183.191 39.816 181.191 39.48 179.335 38.808C177.511 38.136 175.959 37.208 174.679 36.024L178.375 31.896C180.519 33.56 182.775 34.392 185.143 34.392C186.295 34.392 187.191 34.184 187.831 33.768C188.503 33.352 188.839 32.76 188.839 31.992C188.839 31.384 188.711 30.904 188.455 30.552C188.199 30.2 187.703 29.88 186.967 29.592C186.231 29.272 185.063 28.888 183.463 28.44C180.935 27.704 179.047 26.68 177.799 25.368C176.551 24.056 175.927 22.424 175.927 20.472C175.927 19 176.343 17.688 177.175 16.536C178.039 15.352 179.255 14.424 180.823 13.752C182.423 13.048 184.263 12.696 186.343 12.696Z" fill="#141414"/>
<path d="M211.61 12.696C215.514 12.696 218.57 13.896 220.778 16.296C222.986 18.664 224.09 21.992 224.09 26.28C224.09 29 223.578 31.384 222.554 33.432C221.562 35.448 220.122 37.016 218.234 38.136C216.378 39.256 214.17 39.816 211.61 39.816C207.738 39.816 204.682 38.632 202.442 36.264C200.234 33.864 199.13 30.52 199.13 26.232C199.13 23.512 199.626 21.144 200.618 19.128C201.642 17.08 203.082 15.496 204.938 14.376C206.826 13.256 209.05 12.696 211.61 12.696ZM211.61 18.264C210.074 18.264 208.922 18.92 208.154 20.232C207.386 21.512 207.002 23.512 207.002 26.232C207.002 29.016 207.37 31.048 208.106 32.328C208.874 33.608 210.042 34.248 211.61 34.248C213.146 34.248 214.298 33.608 215.066 32.328C215.834 31.016 216.218 29 216.218 26.28C216.218 23.496 215.834 21.464 215.066 20.184C214.33 18.904 213.178 18.264 211.61 18.264Z" fill="#141414"/>
<path d="M256.777 12.696C258.793 12.696 260.409 13.384 261.625 14.76C262.841 16.104 263.449 17.976 263.449 20.376V39H255.865V21.672C255.865 19.4 255.145 18.264 253.705 18.264C252.905 18.264 252.201 18.536 251.593 19.08C250.985 19.624 250.393 20.456 249.817 21.576V39H242.233V21.672C242.233 19.4 241.513 18.264 240.073 18.264C239.305 18.264 238.601 18.552 237.961 19.128C237.353 19.672 236.761 20.488 236.185 21.576V39H228.601V13.512H235.225L235.753 16.488C236.745 15.208 237.833 14.264 239.017 13.656C240.233 13.016 241.609 12.696 243.145 12.696C244.585 12.696 245.817 13.048 246.841 13.752C247.897 14.456 248.665 15.448 249.145 16.728C250.169 15.352 251.289 14.344 252.505 13.704C253.753 13.032 255.177 12.696 256.777 12.696Z" fill="#141414"/>
<path d="M291.386 4.92002C293.882 4.92002 296.042 5.27202 297.866 5.97602C299.722 6.68002 301.402 7.75202 302.906 9.19202L299.258 13.464C296.986 11.608 294.555 10.68 291.962 10.68C290.586 10.68 289.498 10.968 288.698 11.544C287.898 12.088 287.498 12.888 287.498 13.944C287.498 14.68 287.674 15.288 288.026 15.768C288.378 16.216 289.003 16.648 289.898 17.064C290.794 17.48 292.138 17.976 293.93 18.552C297.322 19.64 299.818 20.984 301.418 22.584C303.018 24.152 303.818 26.392 303.818 29.304C303.818 31.384 303.29 33.224 302.234 34.824C301.178 36.392 299.659 37.624 297.674 38.52C295.69 39.384 293.339 39.816 290.618 39.816C287.898 39.816 285.482 39.384 283.37 38.52C281.29 37.656 279.498 36.504 277.994 35.064L281.978 30.696C283.258 31.784 284.57 32.6 285.914 33.144C287.29 33.688 288.778 33.96 290.378 33.96C292.01 33.96 293.29 33.608 294.218 32.904C295.178 32.168 295.658 31.16 295.658 29.88C295.658 29.048 295.482 28.36 295.13 27.816C294.779 27.24 294.171 26.728 293.306 26.28C292.442 25.832 291.194 25.352 289.562 24.84C285.883 23.72 283.258 22.344 281.69 20.712C280.154 19.08 279.386 17.016 279.386 14.52C279.386 12.6 279.898 10.92 280.922 9.48002C281.946 8.00802 283.37 6.88802 285.194 6.12002C287.018 5.32002 289.082 4.92002 291.386 4.92002Z" fill="#141414"/>
<path d="M315.591 13.512V39H308.007V13.512H315.591ZM311.751 0.0720215C313.063 0.0720215 314.135 0.488022 314.967 1.32002C315.831 2.12002 316.263 3.14402 316.263 4.39202C316.263 5.64002 315.831 6.68002 314.967 7.51202C314.135 8.31202 313.063 8.71202 311.751 8.71202C310.439 8.71202 309.367 8.31202 308.535 7.51202C307.703 6.68002 307.287 5.64002 307.287 4.39202C307.287 3.14402 307.703 2.12002 308.535 1.32002C309.367 0.488022 310.439 0.0720215 311.751 0.0720215Z" fill="#141414"/>
<path d="M328.322 39.816C326.114 39.816 324.386 39.192 323.138 37.944C321.922 36.664 321.314 34.856 321.314 32.52V3.38402L328.898 2.56802V32.232C328.898 33.288 329.33 33.816 330.194 33.816C330.642 33.816 331.058 33.736 331.442 33.576L332.93 38.952C331.554 39.528 330.018 39.816 328.322 39.816Z" fill="#141414"/>
<path d="M357.271 13.512L349.255 39H340.279L332.071 13.512H340.327L344.839 33.24L349.543 13.512H357.271Z" fill="#141414"/>
<path d="M379.123 31.608C379.123 32.568 379.251 33.272 379.507 33.72C379.795 34.168 380.243 34.504 380.851 34.728L379.267 39.672C377.699 39.544 376.419 39.208 375.427 38.664C374.435 38.088 373.667 37.192 373.123 35.976C371.459 38.536 368.899 39.816 365.443 39.816C362.915 39.816 360.899 39.08 359.395 37.608C357.891 36.136 357.139 34.216 357.139 31.848C357.139 29.064 358.163 26.936 360.211 25.464C362.259 23.992 365.219 23.256 369.091 23.256H371.683V22.152C371.683 20.648 371.363 19.624 370.723 19.08C370.083 18.504 368.963 18.216 367.363 18.216C366.531 18.216 365.523 18.344 364.339 18.6C363.155 18.824 361.939 19.144 360.691 19.56L358.963 14.568C360.563 13.96 362.195 13.496 363.859 13.176C365.555 12.856 367.123 12.696 368.563 12.696C372.211 12.696 374.883 13.448 376.579 14.952C378.275 16.456 379.123 18.712 379.123 21.72V31.608ZM367.651 34.392C369.379 34.392 370.723 33.576 371.683 31.944V27.432H369.811C368.083 27.432 366.787 27.736 365.923 28.344C365.091 28.952 364.675 29.896 364.675 31.176C364.675 32.2 364.931 33 365.443 33.576C365.987 34.12 366.723 34.392 367.651 34.392Z" fill="#141414"/>
</svg>
